<mxfile host="app.diagrams.net" agent="Mozilla/5.0 (Windows NT 10.0; Win64; x64) AppleWebKit/537.36 (KHTML, like Gecko) Chrome/134.0.0.0 Safari/537.36" version="26.1.3">
  <diagram name="페이지-1" id="BtawTVt0PMy_SPl1R_6s">
    <mxGraphModel dx="2555" dy="950" grid="1" gridSize="10" guides="1" tooltips="1" connect="1" arrows="1" fold="1" page="1" pageScale="1" pageWidth="827" pageHeight="1169" math="0" shadow="0">
      <root>
        <mxCell id="0" />
        <mxCell id="1" parent="0" />
        <mxCell id="BqcGLVehLcDLZ3UqIMEm-14" style="edgeStyle=orthogonalEdgeStyle;rounded=0;orthogonalLoop=1;jettySize=auto;html=1;exitX=0.5;exitY=1;exitDx=0;exitDy=0;entryX=0.5;entryY=0;entryDx=0;entryDy=0;" edge="1" parent="1" source="BqcGLVehLcDLZ3UqIMEm-1" target="BqcGLVehLcDLZ3UqIMEm-2">
          <mxGeometry relative="1" as="geometry" />
        </mxCell>
        <mxCell id="BqcGLVehLcDLZ3UqIMEm-1" value="main" style="rounded=0;whiteSpace=wrap;html=1;" vertex="1" parent="1">
          <mxGeometry x="360" y="80" width="80" height="40" as="geometry" />
        </mxCell>
        <mxCell id="BqcGLVehLcDLZ3UqIMEm-15" style="edgeStyle=orthogonalEdgeStyle;rounded=0;orthogonalLoop=1;jettySize=auto;html=1;exitX=0.5;exitY=1;exitDx=0;exitDy=0;entryX=0.5;entryY=0;entryDx=0;entryDy=0;" edge="1" parent="1" source="BqcGLVehLcDLZ3UqIMEm-2" target="BqcGLVehLcDLZ3UqIMEm-3">
          <mxGeometry relative="1" as="geometry" />
        </mxCell>
        <mxCell id="BqcGLVehLcDLZ3UqIMEm-16" style="edgeStyle=orthogonalEdgeStyle;rounded=0;orthogonalLoop=1;jettySize=auto;html=1;exitX=0;exitY=1;exitDx=0;exitDy=0;entryX=0.5;entryY=0;entryDx=0;entryDy=0;" edge="1" parent="1" source="BqcGLVehLcDLZ3UqIMEm-2" target="BqcGLVehLcDLZ3UqIMEm-6">
          <mxGeometry relative="1" as="geometry" />
        </mxCell>
        <mxCell id="BqcGLVehLcDLZ3UqIMEm-17" style="edgeStyle=orthogonalEdgeStyle;rounded=0;orthogonalLoop=1;jettySize=auto;html=1;exitX=1;exitY=1;exitDx=0;exitDy=0;entryX=0.5;entryY=0;entryDx=0;entryDy=0;" edge="1" parent="1" source="BqcGLVehLcDLZ3UqIMEm-2" target="BqcGLVehLcDLZ3UqIMEm-4">
          <mxGeometry relative="1" as="geometry" />
        </mxCell>
        <mxCell id="BqcGLVehLcDLZ3UqIMEm-18" style="edgeStyle=orthogonalEdgeStyle;rounded=0;orthogonalLoop=1;jettySize=auto;html=1;exitX=1;exitY=0.5;exitDx=0;exitDy=0;entryX=0.5;entryY=0;entryDx=0;entryDy=0;" edge="1" parent="1" source="BqcGLVehLcDLZ3UqIMEm-2" target="BqcGLVehLcDLZ3UqIMEm-5">
          <mxGeometry relative="1" as="geometry" />
        </mxCell>
        <mxCell id="BqcGLVehLcDLZ3UqIMEm-19" style="edgeStyle=orthogonalEdgeStyle;rounded=0;orthogonalLoop=1;jettySize=auto;html=1;exitX=0;exitY=0.5;exitDx=0;exitDy=0;entryX=0.5;entryY=0;entryDx=0;entryDy=0;" edge="1" parent="1" source="BqcGLVehLcDLZ3UqIMEm-2" target="BqcGLVehLcDLZ3UqIMEm-7">
          <mxGeometry relative="1" as="geometry" />
        </mxCell>
        <mxCell id="BqcGLVehLcDLZ3UqIMEm-2" value="interface" style="rounded=0;whiteSpace=wrap;html=1;" vertex="1" parent="1">
          <mxGeometry x="360" y="160" width="80" height="40" as="geometry" />
        </mxCell>
        <mxCell id="BqcGLVehLcDLZ3UqIMEm-22" style="edgeStyle=orthogonalEdgeStyle;rounded=0;orthogonalLoop=1;jettySize=auto;html=1;exitX=0.5;exitY=1;exitDx=0;exitDy=0;entryX=0.5;entryY=0;entryDx=0;entryDy=0;" edge="1" parent="1" source="BqcGLVehLcDLZ3UqIMEm-3" target="BqcGLVehLcDLZ3UqIMEm-10">
          <mxGeometry relative="1" as="geometry" />
        </mxCell>
        <mxCell id="BqcGLVehLcDLZ3UqIMEm-23" style="edgeStyle=orthogonalEdgeStyle;rounded=0;orthogonalLoop=1;jettySize=auto;html=1;exitX=0.5;exitY=1;exitDx=0;exitDy=0;entryX=0.5;entryY=0;entryDx=0;entryDy=0;" edge="1" parent="1" source="BqcGLVehLcDLZ3UqIMEm-3" target="BqcGLVehLcDLZ3UqIMEm-11">
          <mxGeometry relative="1" as="geometry" />
        </mxCell>
        <mxCell id="BqcGLVehLcDLZ3UqIMEm-3" value="mapmanager" style="rounded=0;whiteSpace=wrap;html=1;" vertex="1" parent="1">
          <mxGeometry x="360" y="240" width="80" height="40" as="geometry" />
        </mxCell>
        <mxCell id="BqcGLVehLcDLZ3UqIMEm-32" style="edgeStyle=orthogonalEdgeStyle;rounded=0;orthogonalLoop=1;jettySize=auto;html=1;exitX=0.5;exitY=1;exitDx=0;exitDy=0;entryX=0.5;entryY=0;entryDx=0;entryDy=0;" edge="1" parent="1" source="BqcGLVehLcDLZ3UqIMEm-4" target="BqcGLVehLcDLZ3UqIMEm-12">
          <mxGeometry relative="1" as="geometry" />
        </mxCell>
        <mxCell id="BqcGLVehLcDLZ3UqIMEm-4" value="battle" style="rounded=0;whiteSpace=wrap;html=1;" vertex="1" parent="1">
          <mxGeometry x="520" y="240" width="80" height="40" as="geometry" />
        </mxCell>
        <mxCell id="BqcGLVehLcDLZ3UqIMEm-37" style="edgeStyle=orthogonalEdgeStyle;rounded=0;orthogonalLoop=1;jettySize=auto;html=1;exitX=0.5;exitY=1;exitDx=0;exitDy=0;entryX=0.5;entryY=0;entryDx=0;entryDy=0;" edge="1" parent="1" source="BqcGLVehLcDLZ3UqIMEm-5" target="BqcGLVehLcDLZ3UqIMEm-36">
          <mxGeometry relative="1" as="geometry" />
        </mxCell>
        <mxCell id="BqcGLVehLcDLZ3UqIMEm-39" style="edgeStyle=orthogonalEdgeStyle;rounded=0;orthogonalLoop=1;jettySize=auto;html=1;exitX=0.5;exitY=1;exitDx=0;exitDy=0;entryX=0.5;entryY=0;entryDx=0;entryDy=0;" edge="1" parent="1" source="BqcGLVehLcDLZ3UqIMEm-5" target="BqcGLVehLcDLZ3UqIMEm-38">
          <mxGeometry relative="1" as="geometry" />
        </mxCell>
        <mxCell id="BqcGLVehLcDLZ3UqIMEm-5" value="non_battle" style="rounded=0;whiteSpace=wrap;html=1;" vertex="1" parent="1">
          <mxGeometry x="680" y="240" width="80" height="40" as="geometry" />
        </mxCell>
        <mxCell id="BqcGLVehLcDLZ3UqIMEm-26" style="edgeStyle=orthogonalEdgeStyle;rounded=0;orthogonalLoop=1;jettySize=auto;html=1;exitX=0.75;exitY=1;exitDx=0;exitDy=0;entryX=0.5;entryY=0;entryDx=0;entryDy=0;" edge="1" parent="1" source="BqcGLVehLcDLZ3UqIMEm-6" target="BqcGLVehLcDLZ3UqIMEm-9">
          <mxGeometry relative="1" as="geometry" />
        </mxCell>
        <mxCell id="BqcGLVehLcDLZ3UqIMEm-27" style="edgeStyle=orthogonalEdgeStyle;rounded=0;orthogonalLoop=1;jettySize=auto;html=1;exitX=0;exitY=1;exitDx=0;exitDy=0;entryX=0.5;entryY=0;entryDx=0;entryDy=0;" edge="1" parent="1" source="BqcGLVehLcDLZ3UqIMEm-6" target="BqcGLVehLcDLZ3UqIMEm-8">
          <mxGeometry relative="1" as="geometry" />
        </mxCell>
        <mxCell id="BqcGLVehLcDLZ3UqIMEm-6" value="dict" style="rounded=0;whiteSpace=wrap;html=1;" vertex="1" parent="1">
          <mxGeometry x="170" y="240" width="80" height="40" as="geometry" />
        </mxCell>
        <mxCell id="BqcGLVehLcDLZ3UqIMEm-30" style="edgeStyle=orthogonalEdgeStyle;rounded=0;orthogonalLoop=1;jettySize=auto;html=1;exitX=0;exitY=1;exitDx=0;exitDy=0;entryX=0.5;entryY=0;entryDx=0;entryDy=0;" edge="1" parent="1" source="BqcGLVehLcDLZ3UqIMEm-7" target="BqcGLVehLcDLZ3UqIMEm-29">
          <mxGeometry relative="1" as="geometry" />
        </mxCell>
        <mxCell id="BqcGLVehLcDLZ3UqIMEm-31" style="edgeStyle=orthogonalEdgeStyle;rounded=0;orthogonalLoop=1;jettySize=auto;html=1;exitX=0.5;exitY=1;exitDx=0;exitDy=0;entryX=0.5;entryY=0;entryDx=0;entryDy=0;" edge="1" parent="1" source="BqcGLVehLcDLZ3UqIMEm-7" target="BqcGLVehLcDLZ3UqIMEm-28">
          <mxGeometry relative="1" as="geometry" />
        </mxCell>
        <mxCell id="BqcGLVehLcDLZ3UqIMEm-7" value="graphic_ui" style="rounded=0;whiteSpace=wrap;html=1;" vertex="1" parent="1">
          <mxGeometry y="240" width="80" height="40" as="geometry" />
        </mxCell>
        <mxCell id="BqcGLVehLcDLZ3UqIMEm-8" value="chara&lt;div&gt;(alience,enemy)&lt;/div&gt;" style="rounded=0;whiteSpace=wrap;html=1;fontSize=11;" vertex="1" parent="1">
          <mxGeometry x="110" y="320" width="80" height="40" as="geometry" />
        </mxCell>
        <mxCell id="BqcGLVehLcDLZ3UqIMEm-9" value="item" style="rounded=0;whiteSpace=wrap;html=1;" vertex="1" parent="1">
          <mxGeometry x="200" y="320" width="80" height="40" as="geometry" />
        </mxCell>
        <mxCell id="BqcGLVehLcDLZ3UqIMEm-10" value="mkmap" style="rounded=0;whiteSpace=wrap;html=1;" vertex="1" parent="1">
          <mxGeometry x="310" y="320" width="80" height="40" as="geometry" />
        </mxCell>
        <mxCell id="BqcGLVehLcDLZ3UqIMEm-11" value="usemap&lt;br&gt;(load, move)" style="rounded=0;whiteSpace=wrap;html=1;" vertex="1" parent="1">
          <mxGeometry x="410" y="320" width="80" height="40" as="geometry" />
        </mxCell>
        <mxCell id="BqcGLVehLcDLZ3UqIMEm-33" style="edgeStyle=orthogonalEdgeStyle;rounded=0;orthogonalLoop=1;jettySize=auto;html=1;exitX=0.5;exitY=1;exitDx=0;exitDy=0;entryX=0.5;entryY=0;entryDx=0;entryDy=0;" edge="1" parent="1" source="BqcGLVehLcDLZ3UqIMEm-12" target="BqcGLVehLcDLZ3UqIMEm-13">
          <mxGeometry relative="1" as="geometry" />
        </mxCell>
        <mxCell id="BqcGLVehLcDLZ3UqIMEm-12" value="order of act&lt;div&gt;(speed,carc_act)&lt;/div&gt;" style="rounded=0;whiteSpace=wrap;html=1;fontSize=11;" vertex="1" parent="1">
          <mxGeometry x="520" y="321" width="80" height="40" as="geometry" />
        </mxCell>
        <mxCell id="BqcGLVehLcDLZ3UqIMEm-35" style="edgeStyle=orthogonalEdgeStyle;rounded=0;orthogonalLoop=1;jettySize=auto;html=1;exitX=0.5;exitY=1;exitDx=0;exitDy=0;entryX=0.5;entryY=0;entryDx=0;entryDy=0;" edge="1" parent="1" source="BqcGLVehLcDLZ3UqIMEm-13" target="BqcGLVehLcDLZ3UqIMEm-34">
          <mxGeometry relative="1" as="geometry" />
        </mxCell>
        <mxCell id="BqcGLVehLcDLZ3UqIMEm-13" value="Act_list&lt;div&gt;(item,skill)&lt;/div&gt;" style="rounded=0;whiteSpace=wrap;html=1;" vertex="1" parent="1">
          <mxGeometry x="520" y="400" width="80" height="40" as="geometry" />
        </mxCell>
        <mxCell id="BqcGLVehLcDLZ3UqIMEm-28" value="graphic" style="rounded=0;whiteSpace=wrap;html=1;" vertex="1" parent="1">
          <mxGeometry y="320" width="80" height="40" as="geometry" />
        </mxCell>
        <mxCell id="BqcGLVehLcDLZ3UqIMEm-29" value="Ui" style="rounded=0;whiteSpace=wrap;html=1;" vertex="1" parent="1">
          <mxGeometry x="-100" y="320" width="80" height="40" as="geometry" />
        </mxCell>
        <mxCell id="BqcGLVehLcDLZ3UqIMEm-34" value="Act_excute&lt;br&gt;(s_target,I_use)" style="rounded=0;whiteSpace=wrap;html=1;fontSize=11;" vertex="1" parent="1">
          <mxGeometry x="520" y="480" width="80" height="40" as="geometry" />
        </mxCell>
        <mxCell id="BqcGLVehLcDLZ3UqIMEm-36" value="item_drop" style="rounded=0;whiteSpace=wrap;html=1;" vertex="1" parent="1">
          <mxGeometry x="630" y="321" width="80" height="40" as="geometry" />
        </mxCell>
        <mxCell id="BqcGLVehLcDLZ3UqIMEm-38" value="" style="rounded=0;whiteSpace=wrap;html=1;" vertex="1" parent="1">
          <mxGeometry x="730" y="321" width="80" height="40" as="geometry" />
        </mxCell>
      </root>
    </mxGraphModel>
  </diagram>
</mxfile>
